<?xml version="1.0" encoding="UTF-8" standalone="no"?>
<!-- Generator: Adobe Illustrator 19.0.0, SVG Export Plug-In . SVG Version: 6.00 Build 0)  -->

<svg
   xmlns:dc="http://purl.org/dc/elements/1.1/"
   xmlns:cc="http://creativecommons.org/ns#"
   xmlns:rdf="http://www.w3.org/1999/02/22-rdf-syntax-ns#"
   xmlns:svg="http://www.w3.org/2000/svg"
   xmlns="http://www.w3.org/2000/svg"
   xmlns:sodipodi="http://sodipodi.sourceforge.net/DTD/sodipodi-0.dtd"
   xmlns:inkscape="http://www.inkscape.org/namespaces/inkscape"
   version="1.1"
   id="Capa_1"
   x="0px"
   y="0px"
   viewBox="0 0 128 128"
   xml:space="preserve"
   sodipodi:docname="logo.svg"
   width="128"
   height="128"
   inkscape:version="0.92.3 (2405546, 2018-03-11)"
   inkscape:export-filename="C:\Users\Arnaud\Desktop\potato\banner.png"
   inkscape:export-xdpi="96"
   inkscape:export-ydpi="96"><metadata
   id="metadata53"><rdf:RDF><cc:Work
       rdf:about=""><dc:format>image/svg+xml</dc:format><dc:type
         rdf:resource="http://purl.org/dc/dcmitype/StillImage" /><dc:title></dc:title></cc:Work></rdf:RDF></metadata><defs
   id="defs51">
	
	

		
		
		
		
		
	</defs><sodipodi:namedview
   pagecolor="#ffffff"
   bordercolor="#666666"
   borderopacity="1"
   objecttolerance="10"
   gridtolerance="10"
   guidetolerance="10"
   inkscape:pageopacity="0"
   inkscape:pageshadow="2"
   inkscape:window-width="1920"
   inkscape:window-height="1017"
   id="namedview49"
   showgrid="false"
   inkscape:zoom="2.6074563"
   inkscape:cx="147.16466"
   inkscape:cy="57.099926"
   inkscape:window-x="-8"
   inkscape:window-y="-8"
   inkscape:window-maximized="1"
   inkscape:current-layer="Capa_1"
   borderlayer="true" />

<g
   id="g18"
   transform="matrix(0.79449137,0,0,0.79449137,60.745763,-329.22028)">
</g>
<g
   id="g20"
   transform="matrix(0.79449137,0,0,0.79449137,60.745763,-329.22028)">
</g>
<g
   id="g22"
   transform="matrix(0.79449137,0,0,0.79449137,60.745763,-329.22028)">
</g>
<g
   id="g24"
   transform="matrix(0.79449137,0,0,0.79449137,60.745763,-329.22028)">
</g>
<g
   id="g26"
   transform="matrix(0.79449137,0,0,0.79449137,60.745763,-329.22028)">
</g>
<g
   id="g28"
   transform="matrix(0.79449137,0,0,0.79449137,60.745763,-329.22028)">
</g>
<g
   id="g30"
   transform="matrix(0.79449137,0,0,0.79449137,60.745763,-329.22028)">
</g>
<g
   id="g32"
   transform="matrix(0.79449137,0,0,0.79449137,60.745763,-329.22028)">
</g>
<g
   id="g34"
   transform="matrix(0.79449137,0,0,0.79449137,60.745763,-329.22028)">
</g>
<g
   id="g36"
   transform="matrix(0.79449137,0,0,0.79449137,60.745763,-329.22028)">
</g>
<g
   id="g38"
   transform="matrix(0.79449137,0,0,0.79449137,60.745763,-329.22028)">
</g>
<g
   id="g40"
   transform="matrix(0.79449137,0,0,0.79449137,60.745763,-329.22028)">
</g>
<g
   id="g42"
   transform="matrix(0.79449137,0,0,0.79449137,60.745763,-329.22028)">
</g>
<g
   id="g44"
   transform="matrix(0.79449137,0,0,0.79449137,60.745763,-329.22028)">
</g>
<g
   id="g46"
   transform="matrix(0.79449137,0,0,0.79449137,60.745763,-329.22028)">
</g>
<g
   id="g1130"
   transform="matrix(0.6284249,0,0,0.6284249,-46.239797,144.43838)"><g
     transform="translate(0,-384)"
     id="g1125"><path
       inkscape:connector-curvature="0"
       id="path2"
       d="m 76.401917,231.63646 c 0,-39.86641 55.694223,-83.54182 100.249593,-44.55538 15.11514,13.22756 27.84712,22.27769 27.84712,38.98595 66.83307,-11.13884 76.31786,49.52333 66.83307,77.97191 -5.56943,16.70827 -32.68162,61.59195 -133.66614,16.70827 C 87.540762,298.46952 76.401917,256.05266 76.401917,231.63646"
       style="fill:#d9ab82;fill-opacity:1;stroke-width:0.48349875" /><path
       inkscape:connector-curvature="0"
       style="fill:#c17a4f;fill-opacity:1;stroke-width:0.48349875"
       d="m 201.59673,213.29277 c -11.56819,4.29155 -23.94943,12.75371 -27.95377,28.49837 10.21102,-9.7164 20.28092,-13.9569 31.58657,-15.83867 -0.2432,0.0387 -0.4858,0.0757 -0.73045,0.1167 0,-4.79728 -1.04958,-8.96158 -2.90235,-12.7764 z m -69.50084,29.48167 c -3.07409,0 -5.56915,2.49722 -5.56914,5.5713 0,3.07408 2.49505,5.56915 5.56914,5.56915 3.07408,0 5.56914,-2.49507 5.56914,-5.56915 0,-3.07408 -2.49506,-5.5713 -5.56914,-5.5713 z m -25.06223,16.70959 c -4.61693,0 -8.354801,3.74103 -8.354801,8.35264 0,4.61162 3.737871,8.3548 8.354801,8.3548 4.61693,0 8.35479,-3.74367 8.35479,-8.3548 0,-4.61161 -3.73786,-8.35264 -8.35479,-8.35264 z m 50.12446,33.41487 c -4.61693,0 -8.3548,3.74318 -8.3548,8.35479 0,4.61162 3.73787,8.3548 8.3548,8.3548 4.6121,0 8.35479,-3.74367 8.35479,-8.3548 0,-4.61161 -3.74318,-8.35479 -8.35479,-8.35479 z m 86.32713,5.5713 c -3.07988,0 -5.56914,2.48927 -5.56914,5.56915 0,3.07989 2.48926,5.56914 5.56914,5.56914 3.07989,0 5.56914,-2.48925 5.56914,-5.56914 0,-3.07988 -2.48925,-5.56915 -5.56914,-5.56915 z"
       id="path4" /></g></g></svg>